<svg width="24" height="24" viewBox="0 0 24 24" fill="none" xmlns="http://www.w3.org/2000/svg">
<path d="M19.9885 24H4.0115C1.8037 24 0 22.1963 0 19.9885V4.0115C0 1.8037 1.8037 0 4.0115 0H19.9885C22.1963 0 24 1.8037 24 4.0115V19.9885C24 22.2062 22.2062 24 19.9885 24Z" fill="#98A2B3"/>
<path d="M12.0049 18.1651C10.3589 18.1651 8.81149 17.5244 7.64845 16.3614C6.48541 15.1983 5.84476 13.6509 5.84476 12.0049C5.84476 10.3589 6.48541 8.81146 7.64845 7.64842C8.81149 6.48538 10.3589 5.84473 12.0049 5.84473C13.6509 5.84473 15.1983 6.48538 16.3614 7.64842C17.5244 8.81146 18.1651 10.3589 18.1651 12.0049C18.1651 13.6509 17.5244 15.1983 16.3614 16.3614C15.1885 17.5244 13.6509 18.1651 12.0049 18.1651ZM12.0049 7.15561C9.33387 7.15561 7.15564 9.32399 7.15564 12.0049C7.15564 14.6759 9.32402 16.8542 12.0049 16.8542C14.676 16.8542 16.8542 14.6858 16.8542 12.0049C16.8443 9.33384 14.676 7.15561 12.0049 7.15561Z" fill="white"/>
<path d="M19.3658 5.6423C20.0191 5.6423 20.5486 5.11275 20.5486 4.45951C20.5486 3.80628 20.0191 3.27673 19.3658 3.27673C18.7126 3.27673 18.183 3.80628 18.183 4.45951C18.183 5.11275 18.7126 5.6423 19.3658 5.6423Z" fill="white"/>
</svg>
